<svg xmlns="http://www.w3.org/2000/svg" version="1.1" xmlns:xlink="http://www.w3.org/1999/xlink" xmlns:svgjs="http://svgjs.com/svgjs" width="1433" height="500" preserveAspectRatio="none" viewBox="0 0 1433 500"><g mask="url(&quot;#SvgjsMask1160&quot;)" fill="none"><rect width="1433" height="500" x="0" y="0" fill="rgba(229, 183, 189, 1)"></rect><path d="M0,421.822C79.621,430.592,156.797,392.126,223.485,347.75C289.45,303.855,345.315,244.763,375.919,171.677C405.981,99.886,405.212,20.358,392.746,-56.468C380.45,-132.247,357.58,-208.335,305.157,-264.42C253.664,-319.51,180.2,-346.746,106.501,-362.71C36.551,-377.862,-33.144,-365.326,-103.642,-352.972C-182.817,-339.098,-273.996,-343.577,-330.263,-286.174C-386.997,-228.294,-397.332,-137.645,-394.086,-56.661C-391.15,16.58,-348.799,78.973,-313.062,142.971C-280.134,201.94,-244.371,256.849,-193.937,301.772C-135.99,353.387,-77.134,413.326,0,421.822" fill="#e0a8af"></path><path d="M1433 1052.149C1548.092 1050.904 1677.288 1092.625 1770.187 1024.673 1862.857 956.889 1855.0230000000001 818.8109999999999 1897.716 712.229 1937.909 611.89 2003.002 524.042 2013.8029999999999 416.493 2026.751 287.55899999999997 2049.417 137.32999999999998 1965.354 38.71300000000002 1881.301-59.89200000000005 1725.417-36.197 1600.044-68.89999999999998 1479.244-100.40999999999997 1365.055-171.90800000000002 1242.163-149.92999999999995 1113.862-126.98500000000001 1002.7090000000001-45.309999999999945 917.356 53.19200000000001 832.003 151.69400000000002 771.089 273.54499999999996 762.521 403.6 754.26 528.988 812.785 645.295 871.009 756.652 926.579 862.933 984.941 976.202 1091.093 1032.017 1194.231 1086.2469999999998 1316.481 1053.409 1433 1052.149" fill="#ebc6cb"></path></g><defs><mask id="SvgjsMask1160"><rect width="1433" height="500" fill="#ffffff"></rect></mask></defs></svg>