<svg xmlns="http://www.w3.org/2000/svg" version="1.1" xmlns:xlink="http://www.w3.org/1999/xlink" xmlns:svgjs="http://svgjs.com/svgjs" width="1433" height="1000" preserveAspectRatio="none" viewBox="0 0 1433 1000"><g mask="url(&quot;#SvgjsMask1010&quot;)" fill="none"><rect width="1433" height="1000" x="0" y="0" fill="rgba(254, 148, 171, 1)"></rect><path d="M0,533.565C100.117,539.849,191.783,483.959,275.656,428.929C358.896,374.315,440.557,310.604,479.482,218.972C517.952,128.411,511.519,25.34,487.645,-70.113C465.311,-159.407,394.874,-222.63,349.064,-302.466C289.747,-405.841,294.443,-580.172,178.687,-608.553C60.867,-637.44,-8.894,-459.937,-122.781,-418.154C-224.856,-380.704,-362.537,-457.521,-440.247,-381.476C-516.841,-306.523,-462.789,-174.795,-479.622,-68.959C-496.797,39.029,-587.871,148.295,-540.155,246.68C-492.294,345.364,-351.145,344.223,-254.281,395.669C-167.364,441.832,-98.222,527.4,0,533.565" fill="#fe809b"></path><path d="M1433 1541.039C1532.743 1538.393 1580.028 1412.855 1667.636 1365.101 1765.503 1311.755 1914.577 1341.52 1973.086 1246.649 2030.443 1153.646 1969.617 1031.912 1937.54 927.458 1909.444 835.968 1867.654 749.655 1799.751 682.2090000000001 1735.061 617.954 1651.195 580.5129999999999 1563.415 555.8489999999999 1476.455 531.415 1383.022 509.944 1298.319 541.318 1215.5819999999999 571.9639999999999 1167.992 653.72 1112.971 722.693 1060.18 788.87 1008.46 854.413 983.924 935.433 956.374 1026.406 923.9739999999999 1127.972 964.1510000000001 1214.116 1004.2860000000001 1300.17 1112.338 1323.454 1190.226 1377.7640000000001 1271.876 1434.6979999999999 1333.495 1543.6779999999999 1433 1541.039" fill="#fea8bb"></path></g><defs><mask id="SvgjsMask1010"><rect width="1433" height="1000" fill="#ffffff"></rect></mask></defs></svg>